<?xml version="1.0" encoding="UTF-8" standalone="no"?>
<svg
   xmlns:dc="http://purl.org/dc/elements/1.1/"
   xmlns:cc="http://creativecommons.org/ns#"
   xmlns:rdf="http://www.w3.org/1999/02/22-rdf-syntax-ns#"
   xmlns:svg="http://www.w3.org/2000/svg"
   xmlns="http://www.w3.org/2000/svg"
   xmlns:sodipodi="http://sodipodi.sourceforge.net/DTD/sodipodi-0.dtd"
   xmlns:inkscape="http://www.inkscape.org/namespaces/inkscape"
   width="210mm"
   height="297mm"
   viewBox="0 0 210 297"
   version="1.1"
   id="svg1516"
   inkscape:version="1.0 (4035a4fb49, 2020-05-01)"
   sodipodi:docname="neurons_footprint.svg">
  <defs
     id="defs1510" />
  <sodipodi:namedview
     inkscape:window-maximized="1"
     inkscape:window-y="-8"
     inkscape:window-x="-8"
     inkscape:window-height="1017"
     inkscape:window-width="1920"
     showgrid="false"
     inkscape:document-rotation="0"
     inkscape:current-layer="layer1"
     inkscape:document-units="mm"
     inkscape:cy="458.35391"
     inkscape:cx="680.75007"
     inkscape:zoom="22.047737"
     inkscape:pageshadow="2"
     inkscape:pageopacity="0.0"
     borderopacity="1.0"
     bordercolor="#666666"
     pagecolor="#ffffff"
     id="base" />
  <metadata
     id="metadata1513">
    <rdf:RDF>
      <cc:Work
         rdf:about="">
        <dc:format>image/svg+xml</dc:format>
        <dc:type
           rdf:resource="http://purl.org/dc/dcmitype/StillImage" />
        <dc:title />
      </cc:Work>
    </rdf:RDF>
  </metadata>
  <g
     id="layer1"
     inkscape:groupmode="layer"
     inkscape:label="Cu">
    <path
       sodipodi:nodetypes="csc"
       style="fill:#ffb300;fill-opacity:1;stroke:#ffb300;stroke-width:0.2032;stroke-linecap:butt;stroke-linejoin:miter;stroke-miterlimit:4;stroke-dasharray:none;stroke-opacity:1"
       d="M 177.457 120.691 L 176.682 121.632 L 176.519 122.233 L 176.788 122.542 L 177.309 122.608 L 177.901 122.481 L 178.386 122.208 L 178.582 121.839 L 178.311 121.423 L 177.885 120.992 L 177.457 120.691 L 177.457 120.691"
       id="path3030" />
    <path
       style="fill:none;stroke:#ffb300;stroke-width:0.2032;stroke-linecap:butt;stroke-linejoin:miter;stroke-miterlimit:4;stroke-dasharray:none;stroke-opacity:1"
       d="M 178.001 121.146 L 178.461 120.914 L 178.762 120.397 L 178.987 119.849 L 179.217 119.523 L 180.004 119.42 L 180.893 119.374 L 181.358 119.304 L 181.883 119.332 L 182.94 119.447 L 184.063 119.422"
       id="path3038"
       sodipodi:nodetypes="csssc" />
    <path
       style="fill:none;stroke:#ffb300;stroke-width:0.2032;stroke-linecap:butt;stroke-linejoin:miter;stroke-miterlimit:4;stroke-dasharray:none;stroke-opacity:1"
       d="M 179.026 119.764 L 179.258 119.839 L 179.313 120.064 L 179.324 120.319 L 179.426 120.482 L 180.246 120.619 L 181.441 120.648 L 183.642 120.604"
       id="path3040"
       sodipodi:nodetypes="csc" />
    <path
       style="fill:none;stroke:#ffb300;stroke-width:0.2032;stroke-linecap:butt;stroke-linejoin:miter;stroke-miterlimit:4;stroke-dasharray:none;stroke-opacity:1"
       d="M 178.527 121.684 L 179.006 121.692 L 179.289 122.005 L 179.772 122.023 L 180.274 121.887 L 181.233 121.829 L 182.159 121.949 L 182.883 121.892 L 183.59 121.719"
       id="path3042"
       sodipodi:nodetypes="csssc" />
    <path
       style="fill:none;stroke:#ffb300;stroke-width:0.2032;stroke-linecap:butt;stroke-linejoin:miter;stroke-miterlimit:4;stroke-dasharray:none;stroke-opacity:1"
       d="M 179.356 122.067 L 179.372 122.661 L 179.565 123.139 L 181.371 123.272 L 183.429 123.196"
       id="path3044"
       sodipodi:nodetypes="csc" />
    <path
       style="fill:none;stroke:#ffb300;stroke-width:0.2032;stroke-linecap:butt;stroke-linejoin:miter;stroke-miterlimit:4;stroke-dasharray:none;stroke-opacity:1"
       d="M 177.79 122.525 L 178.035 122.571 L 178.243 122.754 L 178.577 123.362 L 178.846 124.023 L 179.105 124.406 L 180.097 124.654 L 181.437 124.724 L 183.949 124.586"
       id="path3046"
       sodipodi:nodetypes="csc" />
    <path
       style="fill:none;stroke:#ffb300;stroke-width:0.2032;stroke-linecap:butt;stroke-linejoin:miter;stroke-miterlimit:4;stroke-dasharray:none;stroke-opacity:1"
       d="M 178.6 123.496 L 178.362 123.88 L 178.144 124.068 L 177.984 124.227 L 177.923 124.525"
       id="path3048"
       sodipodi:nodetypes="cc" />
    <path
       style="fill:none;stroke:#ffb300;stroke-width:0.2032;stroke-linecap:butt;stroke-linejoin:miter;stroke-miterlimit:4;stroke-dasharray:none;stroke-opacity:1"
       d="M 176.778 122.525 L 176.606 122.675 L 176.516 122.869 L 176.614 123.747 L 176.499 123.834 L 176.312 123.778 L 175.828 123.516 L 175.587 123.447 L 175.383 123.513"
       id="path3050"
       sodipodi:nodetypes="ccc" />
    <path
       style="fill:none;stroke:#ffb300;stroke-width:0.2032;stroke-linecap:butt;stroke-linejoin:miter;stroke-miterlimit:4;stroke-dasharray:none;stroke-opacity:1"
       d="M 175.941 123.51 L 175.957 123.071 L 175.722 122.901 L 175.14 122.799 L 174.961 122.559 L 174.929 122.322 L 174.798 122.14 L 174.321 122.067"
       id="path3052"
       sodipodi:nodetypes="csc" />
    <path
       style="fill:none;stroke:#ffb300;stroke-width:0.2032;stroke-linecap:butt;stroke-linejoin:miter;stroke-miterlimit:4;stroke-dasharray:none;stroke-opacity:1"
       d="M 176.734 121.539 L 176.581 121.015 L 176.173 120.918 L 175.665 120.959 L 175.209 120.848 L 174.652 120.307"
       id="path3054"
       sodipodi:nodetypes="csc" />
    <path
       style="fill:#ffb300;fill-opacity:1;stroke:#ffb300;stroke-width:0.2032;stroke-linecap:butt;stroke-linejoin:miter;stroke-miterlimit:4;stroke-dasharray:none;stroke-opacity:1"
       d="M 185.089 121.736 L 185.455 121.047 L 185.646 120.725 L 185.942 120.482 L 186.29 120.405 L 186.606 120.5 L 187.101 121.008 L 187.335 121.605 L 187.325 121.813 L 187.214 121.893 L 186.962 122.002 L 186.692 122.067 L 186.29 121.886 L 185.873 121.771 L 185.465 121.796 L 185.089 121.736"
       id="path3056"
       sodipodi:nodetypes="cssssc" />
    <path
       sodipodi:nodetypes="cssc"
       style="fill:none;stroke:#ffb300;stroke-width:0.2032;stroke-linecap:butt;stroke-linejoin:miter;stroke-miterlimit:4;stroke-dasharray:none;stroke-opacity:1"
       d="M 186.012 120.464 L 186.172 120.048 L 186.239 119.61 L 185.734 119.412 L 185.51 119.349 L 185.315 119.123 L 185.358 118.782 L 185.62 118.459 L 185.804 118.198 L 185.611 118.042"
       id="path3058" />
    <path
       style="fill:none;stroke:#ffb300;stroke-width:0.2032;stroke-linecap:butt;stroke-linejoin:miter;stroke-miterlimit:4;stroke-dasharray:none;stroke-opacity:1"
       d="M 186.16 119.539 L 186.143 119.143 L 186.273 118.919 L 186.766 118.769 L 187.224 118.647 L 187.31 118.459 L 187.232 118.112"
       id="path3060"
       sodipodi:nodetypes="cc" />
    <path
       sodipodi:nodetypes="csc"
       style="fill:none;stroke:#ffb300;stroke-width:0.2032;stroke-linecap:butt;stroke-linejoin:miter;stroke-miterlimit:4;stroke-dasharray:none;stroke-opacity:1"
       d="M 186.953 120.848 L 187.122 120.396 L 187.374 120.38 L 187.668 120.52 L 187.964 120.534 L 188.591 119.923 L 188.894 119.685 L 189.323 119.68"
       id="path3062" />
    <path
       sodipodi:nodetypes="cc"
       style="fill:none;stroke:#ffb300;stroke-width:0.2032;stroke-linecap:butt;stroke-linejoin:miter;stroke-miterlimit:4;stroke-dasharray:none;stroke-opacity:1"
       d="M 188.329 120.255 L 187.72 119.734 L 187.911 119.035"
       id="path3064" />
    <path
       sodipodi:nodetypes="cssc"
       style="fill:none;stroke:#ffb300;stroke-width:0.2032;stroke-linecap:butt;stroke-linejoin:miter;stroke-miterlimit:4;stroke-dasharray:none;stroke-opacity:1"
       d="M 187.336 121.457 L 187.667 121.283 L 187.99 121.483 L 188.382 121.667 L 189.173 121.394 L 189.491 121.297 L 190.037 121.335"
       id="path3066" />
    <path
       style="fill:none;stroke:#ffb300;stroke-width:0.2032;stroke-linecap:butt;stroke-linejoin:miter;stroke-miterlimit:4;stroke-dasharray:none;stroke-opacity:1"
       d="M 188.643 121.593 L 188.704 121.278 L 188.91 121.03 L 189.41 120.586"
       id="path3068"
       sodipodi:nodetypes="cc" />
    <path
       sodipodi:nodetypes="cc"
       style="fill:none;stroke:#ffb300;stroke-width:0.2032;stroke-linecap:butt;stroke-linejoin:miter;stroke-miterlimit:4;stroke-dasharray:none;stroke-opacity:1"
       d="M 188.068 121.597 L 187.849 122.108 L 188.08 122.357 L 188.414 122.627 L 188.504 123.2"
       id="path3070" />
    <path
       style="fill:none;stroke:#ffb300;stroke-width:0.2032;stroke-linecap:butt;stroke-linejoin:miter;stroke-miterlimit:4;stroke-dasharray:none;stroke-opacity:1"
       d="M 186.549 122.032 L 186.149 122.708 L 186.302 123.066 L 186.653 123.39 L 186.848 123.966"
       id="path3072"
       sodipodi:nodetypes="cc" />
    <path
       style="fill:none;stroke:#ffb300;stroke-width:0.2032;stroke-linecap:butt;stroke-linejoin:miter;stroke-miterlimit:4;stroke-dasharray:none;stroke-opacity:1"
       d="M 185.089 121.736 L 184.821 121.863 L 184.707 122.084 L 184.762 122.701 L 184.907 123.372 L 184.797 123.88 L 179.807 123.927"
       id="path3074"
       sodipodi:nodetypes="csc" />
    <path
       style="fill:none;stroke:#ffb300;stroke-width:0.2032;stroke-linecap:butt;stroke-linejoin:miter;stroke-miterlimit:4;stroke-dasharray:none;stroke-opacity:1"
       d="M 184.256 123.907 L 184.371 123.12 L 183.991 122.625 L 183.714 122.501 L 183.419 122.529 L 182.606 122.615 L 180.45 122.618"
       id="path3076"
       sodipodi:nodetypes="cssc" />
    <path
       style="fill:none;stroke:#ffb300;stroke-width:0.2032;stroke-linecap:butt;stroke-linejoin:miter;stroke-miterlimit:4;stroke-dasharray:none;stroke-opacity:1"
       d="M 183.967 122.59 L 184.128 121.875 L 184.249 121.499 L 184.217 121.161 L 182.824 121.25 L 181.688 121.291 L 180.763 121.201"
       id="path3078"
       sodipodi:nodetypes="ccc" />
    <path
       sodipodi:nodetypes="cc"
       style="fill:none;stroke:#ffb300;stroke-width:0.2032;stroke-linecap:butt;stroke-linejoin:miter;stroke-miterlimit:4;stroke-dasharray:none;stroke-opacity:1"
       d="M 184.13 121.126 L 184.26 120.531 L 184.057 120.183 L 183.605 120.025 L 182.983 119.996 L 181.559 120.09 L 180.436 119.992"
       id="path3080" />
  </g>
</svg>
